<svg width="535" height="542" viewBox="0 0 535 542" fill="none" xmlns="http://www.w3.org/2000/svg">
<path d="M268 105.231C268 102.47 265.761 100.231 263 100.231H49C24.6994 100.231 5 119.931 5 144.231V492.231C5 516.532 24.6995 536.231 49 536.231H397C421.301 536.231 441 516.532 441 492.231V263.231C441 260.47 438.761 258.231 436 258.231H407C404.239 258.231 402 260.47 402 263.231V492.231C402 494.993 399.761 497.231 397 497.231H49C46.2386 497.231 44 494.993 44 492.231V144.231C44 141.47 46.2386 139.231 49 139.231H263C265.761 139.231 268 136.993 268 134.231V105.231Z" fill="black" stroke="black" stroke-width="10" stroke-linejoin="round"/>
<path fill-rule="evenodd" clip-rule="evenodd" d="M186.705 311.883L174.677 359.266L222.063 347.236L466.712 102.587L431.357 67.2316L186.705 311.883Z" fill="black"/>
<path d="M467 32.0513L491.749 7.30253C495.654 3.39729 501.986 3.39729 505.891 7.30253L527.104 28.5157C531.009 32.421 531.009 38.7526 527.104 42.6579L502.355 67.4066L467 32.0513Z" fill="black"/>
</svg>
