<svg xmlns="http://www.w3.org/2000/svg" width="157" height="46" viewBox="0 0 157 46" fill="none"><g clip-path="url(#clip0_142_4918)"><path d="M43.0761 0C40.375 0 37.784 0.472038 35.3766 1.3322C34.5374 1.6364 33.7192 1.98256 32.9272 2.38117C30.1055 3.78155 27.6194 5.75362 25.6159 8.14004C25.1071 8.74845 24.6246 9.38308 24.1788 10.0439C21.719 13.6786 20.2871 18.0633 20.2871 22.7837C20.2871 27.5041 21.719 31.8888 24.1788 35.5235C26.9901 35.2193 29.5338 34.0025 31.4954 32.1773C29.4079 29.6125 28.1544 26.3397 28.1544 22.7837C28.1544 19.2277 29.4079 15.9549 31.4954 13.3902C31.936 12.8447 32.4133 12.3359 32.9272 11.8639C34.9308 9.99673 37.4483 8.67502 40.2386 8.14004C41.0358 7.9827 41.854 7.89353 42.6932 7.8778C42.8191 7.86731 42.9502 7.86731 43.0761 7.86731C51.3 7.86731 57.9925 14.5598 57.9925 22.7837C57.9925 31.0077 51.3 37.7001 43.0761 37.7001C42.9502 37.7001 42.8191 37.7001 42.6932 37.6897C40.7159 40.3226 38.2298 42.5569 35.3766 44.2352C37.784 45.0954 40.375 45.5674 43.0761 45.5674C55.6585 45.5674 65.8598 35.3662 65.8598 22.7837C65.8598 10.2013 55.6585 0 43.0761 0Z" fill="#1EA373"></path><path d="M40.2387 37.4274C40.7527 36.819 41.2299 36.1844 41.6758 35.5235C44.1356 31.8888 45.5674 27.5041 45.5674 22.7837C45.5674 18.0633 44.1356 13.6786 41.6758 10.0439C38.8645 10.3481 36.326 11.5649 34.3592 13.3902C36.4466 15.9549 37.7001 19.2277 37.7001 22.7837C37.7001 26.3397 36.4466 29.6125 34.3592 32.1773C33.9186 32.7228 33.4413 33.2315 32.9273 33.7035C30.9238 35.5707 28.4062 36.8924 25.616 37.4274C24.8187 37.5848 24.0005 37.6739 23.1614 37.6897C23.0355 37.7001 22.9096 37.7001 22.7837 37.7001C14.5598 37.7001 7.86731 31.0077 7.86731 22.7837C7.86731 14.5598 14.5598 7.86731 22.7837 7.86731C22.9096 7.86731 23.0355 7.86731 23.1614 7.8778C25.1387 5.24487 27.6247 3.01056 30.478 1.3322C28.0758 0.472038 25.4848 0 22.7837 0C10.2013 0 0 10.2013 0 22.7837C0 35.3662 10.2013 45.5674 22.7837 45.5674C25.4848 45.5674 28.0758 45.0954 30.478 44.2352C31.3171 43.931 32.1353 43.5849 32.9273 43.1915C35.749 41.7859 38.2351 39.8138 40.2387 37.4274Z" fill="#094F69"></path><path d="M82.827 35.2878C81.3112 35.2878 79.8951 35.0046 78.5839 34.4434C77.2727 33.8822 76.1451 33.0955 75.201 32.0885C74.2569 31.0814 73.5593 29.9066 73.103 28.5587L76.8111 26.9642C77.3986 28.3541 78.243 29.4398 79.3497 30.2318C80.4563 31.0237 81.6994 31.4171 83.0893 31.4171C83.8707 31.4171 84.5473 31.2912 85.1243 31.0447C85.696 30.7982 86.1418 30.4521 86.4565 30.022C86.7712 29.5866 86.9285 29.0674 86.9285 28.459C86.9285 27.7457 86.7187 27.1583 86.2939 26.702C85.869 26.2457 85.2397 25.8785 84.39 25.5953L79.7378 24.1005C77.8496 23.5131 76.4283 22.6424 75.4632 21.4833C74.4982 20.3242 74.0156 18.9396 74.0156 17.3399C74.0156 15.9552 74.3618 14.7279 75.0541 13.6632C75.7464 12.6038 76.7062 11.7698 77.9335 11.1771C79.1556 10.5792 80.5612 10.2803 82.1452 10.2803C83.598 10.2803 84.9302 10.5373 86.147 11.046C87.3586 11.5548 88.4076 12.2628 89.2835 13.1597C90.1593 14.0618 90.815 15.116 91.2503 16.3276L87.5736 17.9535C87.1173 16.7629 86.4093 15.8293 85.4442 15.158C84.4792 14.4867 83.3777 14.151 82.1452 14.151C81.4057 14.151 80.7553 14.2769 80.1941 14.5234C79.6276 14.7751 79.1923 15.1265 78.8776 15.5776C78.5629 16.0339 78.4056 16.5531 78.4056 17.1406C78.4056 17.8119 78.6206 18.4046 79.056 18.9133C79.4913 19.4221 80.1521 19.8207 81.0385 20.0987L85.4914 21.4991C87.4215 22.1284 88.8691 22.9938 89.8342 24.1005C90.7992 25.2072 91.2817 26.5708 91.2817 28.1968C91.2817 29.5866 90.9251 30.8087 90.2066 31.8734C89.4933 32.9381 88.502 33.7721 87.2484 34.3752C85.9897 34.9836 84.5159 35.2878 82.827 35.2878Z" fill="#094F69"></path><path d="M101.2 35.2879C99.8098 35.2879 98.6192 34.9837 97.6227 34.3753C96.6261 33.7669 95.8551 32.9225 95.3149 31.8368C94.7747 30.7511 94.502 29.4871 94.502 28.0343V17.2036H98.7923V27.6724C98.7923 28.4119 98.9391 29.057 99.2328 29.6077C99.5265 30.1584 99.9461 30.5938 100.502 30.9085C101.053 31.2232 101.677 31.3805 102.369 31.3805C103.062 31.3805 103.68 31.2232 104.221 30.9085C104.761 30.5938 105.186 30.1532 105.49 29.592C105.794 29.0308 105.946 28.3542 105.946 27.578V17.2036H110.205V34.8946H106.172V31.4172L106.497 32.0361C106.083 33.1218 105.411 33.9348 104.483 34.475C103.549 35.0152 102.453 35.2879 101.2 35.2879Z" fill="#094F69"></path><path d="M125.913 35.2878C124.177 35.2878 122.573 34.9731 121.099 34.3438C119.625 33.7144 118.345 32.8385 117.259 31.7108C116.174 30.5832 115.324 29.2615 114.705 27.7457C114.086 26.2299 113.777 24.5726 113.777 22.7683C113.777 20.9641 114.081 19.3067 114.689 17.7752C115.298 16.2437 116.148 14.9272 117.244 13.8101C118.34 12.6929 119.62 11.8275 121.083 11.2086C122.546 10.5897 124.156 10.2803 125.913 10.2803C127.671 10.2803 129.202 10.574 130.581 11.1562C131.956 11.7436 133.125 12.5146 134.08 13.4796C135.034 14.4447 135.716 15.4989 136.13 16.6475L132.165 18.5357C131.709 17.2979 130.943 16.2857 129.858 15.4937C128.772 14.7017 127.461 14.3083 125.924 14.3083C124.387 14.3083 123.066 14.665 121.906 15.3835C120.747 16.0968 119.845 17.0881 119.205 18.3416C118.565 19.6004 118.245 21.0742 118.245 22.7631C118.245 24.4519 118.565 25.931 119.205 27.2002C119.845 28.4695 120.742 29.4608 121.906 30.1741C123.066 30.8874 124.403 31.2493 125.924 31.2493C127.445 31.2493 128.772 30.8559 129.858 30.0639C130.943 29.272 131.709 28.2702 132.165 27.0586L136.13 28.9101C135.716 30.0587 135.034 31.1182 134.08 32.0832C133.125 33.0483 131.961 33.8245 130.581 34.4067C129.207 34.9941 127.65 35.2826 125.913 35.2826V35.2878Z" fill="#1EA373"></path><path d="M147.638 35.2881C145.923 35.2881 144.36 34.8895 142.938 34.087C141.517 33.2846 140.384 32.1884 139.54 30.8038C138.695 29.4191 138.271 27.8352 138.271 26.0571C138.271 24.2791 138.695 22.6952 139.54 21.3105C140.384 19.9259 141.512 18.8297 142.923 18.0272C144.334 17.2248 145.902 16.8262 147.638 16.8262C149.374 16.8262 150.979 17.23 152.384 18.0272C153.795 18.8297 154.918 19.9206 155.752 21.2948C156.586 22.669 157.005 24.2582 157.005 26.0571C157.005 27.8561 156.58 29.4191 155.736 30.8038C154.892 32.1936 153.764 33.2846 152.353 34.087C150.942 34.8895 149.374 35.2881 147.638 35.2881ZM147.638 31.3859C148.613 31.3859 149.463 31.1604 150.192 30.7041C150.921 30.2478 151.493 29.6132 151.918 28.8002C152.342 27.9873 152.552 27.0694 152.552 26.0519C152.552 25.0344 152.342 24.1218 151.918 23.3193C151.493 22.5169 150.921 21.8875 150.192 21.4312C149.463 20.9749 148.613 20.7493 147.638 20.7493C146.662 20.7493 145.839 20.9749 145.099 21.4312C144.36 21.8875 143.783 22.5169 143.358 23.3193C142.933 24.1218 142.723 25.0344 142.723 26.0519C142.723 27.0694 142.933 27.9873 143.358 28.8002C143.783 29.6132 144.36 30.2478 145.099 30.7041C145.839 31.1604 146.683 31.3859 147.638 31.3859Z" fill="#1EA373"></path></g><defs><clipPath id="clip0_142_4918"><rect width="157" height="45.5674" fill="white"></rect></clipPath></defs></svg> 