<svg width="1001" height="291" viewBox="0 0 1001 291" fill="none" xmlns="http://www.w3.org/2000/svg">
<path d="M274.37 0C257.165 0 240.662 3.00661 225.328 8.48535C219.983 10.4229 214.772 12.6278 209.727 15.1667C191.754 24.0863 175.919 36.6473 163.158 51.8474C159.917 55.7226 156.844 59.7648 154.005 63.9739C138.337 87.1248 129.217 115.053 129.217 145.119C129.217 175.185 138.337 203.113 154.005 226.264C171.911 224.327 188.113 216.576 200.607 204.951C187.311 188.615 179.327 167.769 179.327 145.119C179.327 122.469 187.311 101.624 200.607 85.2879C203.414 81.8134 206.454 78.5726 209.727 75.5662C222.489 63.6734 238.524 55.2549 256.296 51.8474C261.374 50.8452 266.586 50.2773 271.931 50.1771C272.733 50.1103 273.568 50.1103 274.37 50.1103C326.751 50.1103 369.379 92.7376 369.379 145.119C369.379 197.501 326.751 240.128 274.37 240.128C273.568 240.128 272.733 240.128 271.931 240.062C259.337 256.832 243.502 271.063 225.328 281.753C240.662 287.232 257.165 290.238 274.37 290.238C354.512 290.238 419.489 225.262 419.489 145.119C419.489 64.9764 354.512 0 274.37 0Z" fill="#1EA373"/>
<path d="M256.297 238.391C259.571 234.516 262.611 230.474 265.451 226.264C281.118 203.113 290.238 175.185 290.238 145.119C290.238 115.053 281.118 87.1248 265.451 63.9739C247.545 65.9115 231.376 73.6618 218.848 85.2879C232.144 101.624 240.128 122.469 240.128 145.119C240.128 167.769 232.144 188.615 218.848 204.951C216.042 208.425 213.002 211.666 209.728 214.672C196.967 226.565 180.931 234.983 163.159 238.391C158.081 239.394 152.869 239.961 147.525 240.062C146.723 240.128 145.921 240.128 145.119 240.128C92.7376 240.128 50.1103 197.501 50.1103 145.119C50.1103 92.7376 92.7376 50.1103 145.119 50.1103C145.921 50.1103 146.723 50.1103 147.525 50.1771C160.119 33.4068 175.954 19.1755 194.127 8.48535C178.827 3.00661 162.324 0 145.119 0C64.9764 0 0 64.9764 0 145.119C0 225.262 64.9764 290.238 145.119 290.238C162.324 290.238 178.827 287.232 194.127 281.753C199.472 279.815 204.683 277.611 209.728 275.105C227.701 266.152 243.536 253.591 256.297 238.391Z" fill="#094F69"/>
<path d="M527.56 224.763C517.906 224.763 508.886 222.959 500.534 219.385C492.183 215.81 485 210.799 478.987 204.385C472.974 197.971 468.53 190.488 465.624 181.902L489.242 171.746C492.985 180.599 498.363 187.515 505.412 192.559C512.46 197.603 520.378 200.109 529.231 200.109C534.208 200.109 538.518 199.307 542.193 197.737C545.834 196.167 548.674 193.962 550.678 191.223C552.683 188.45 553.685 185.143 553.685 181.267C553.685 176.724 552.348 172.983 549.643 170.076C546.936 167.17 542.928 164.831 537.516 163.027L507.884 153.506C495.857 149.765 486.804 144.219 480.657 136.836C474.511 129.453 471.437 120.634 471.437 110.445C471.437 101.625 473.642 93.8082 478.051 87.0266C482.461 80.2789 488.574 74.9668 496.392 71.1916C504.176 67.3833 513.129 65.4795 523.218 65.4795C532.471 65.4795 540.957 67.1164 548.707 70.3566C556.424 73.5973 563.106 78.1069 568.685 83.8196C574.263 89.5655 578.439 96.2801 581.212 103.997L557.793 114.353C554.887 106.77 550.378 100.823 544.23 96.5476C538.084 92.2718 531.068 90.1336 523.218 90.1336C518.507 90.1336 514.365 90.9355 510.79 92.5056C507.182 94.1088 504.409 96.347 502.405 99.2203C500.4 102.127 499.399 105.434 499.399 109.176C499.399 113.451 500.768 117.227 503.541 120.467C506.314 123.708 510.523 126.246 516.169 128.017L544.531 136.937C556.825 140.945 566.045 146.457 572.192 153.506C578.339 160.555 581.412 169.241 581.412 179.597C581.412 188.45 579.141 196.234 574.564 203.015C570.021 209.797 563.707 215.109 555.722 218.95C547.705 222.825 538.318 224.763 527.56 224.763Z" fill="#094F69"/>
<path d="M644.586 224.764C635.731 224.764 628.148 222.826 621.801 218.951C615.453 215.076 610.542 209.698 607.102 202.782C603.661 195.867 601.924 187.816 601.924 178.562V109.577H629.251V176.257C629.251 180.968 630.186 185.077 632.056 188.584C633.927 192.092 636.6 194.865 640.14 196.87C643.65 198.874 647.624 199.876 652.032 199.876C656.446 199.876 660.382 198.874 663.828 196.87C667.268 194.865 669.975 192.059 671.911 188.484C673.847 184.91 674.816 180.6 674.816 175.656V109.577H701.943V222.259H676.255V200.11L678.325 204.052C675.688 210.967 671.408 216.145 665.497 219.586C659.548 223.027 652.567 224.764 644.586 224.764Z" fill="#094F69"/>
<path d="M801.994 224.763C790.936 224.763 780.72 222.758 771.331 218.75C761.943 214.741 753.79 209.162 746.873 201.979C739.962 194.797 734.548 186.379 730.605 176.724C726.662 167.069 724.694 156.513 724.694 145.021C724.694 133.529 726.631 122.972 730.503 113.218C734.382 103.463 739.796 95.0776 746.777 87.9623C753.758 80.8464 761.911 75.3343 771.229 71.3922C780.548 67.4502 790.803 65.4795 801.994 65.4795C813.191 65.4795 822.943 67.3502 831.726 71.0585C840.484 74.7999 847.93 79.7107 854.013 85.8572C860.089 92.0043 864.433 98.719 867.07 106.035L841.815 118.062C838.911 110.178 834.032 103.73 827.121 98.6859C820.204 93.6413 811.854 91.1355 802.064 91.1355C792.274 91.1355 783.86 93.4075 776.471 97.984C769.089 102.527 763.344 108.841 759.268 116.825C755.191 124.843 753.153 134.23 753.153 144.988C753.153 155.744 755.191 165.165 759.268 173.25C763.344 181.334 769.057 187.648 776.471 192.192C783.86 196.735 792.376 199.04 802.064 199.04C811.752 199.04 820.204 196.534 827.121 191.49C834.032 186.446 838.911 180.065 841.815 172.348L867.07 184.141C864.433 191.457 860.089 198.205 854.013 204.351C847.93 210.499 840.516 215.443 831.726 219.151C822.975 222.892 813.057 224.73 801.994 224.73V224.763Z" fill="#1EA373"/>
<path d="M940.369 224.765C929.446 224.765 919.491 222.226 910.433 217.115C901.382 212.004 894.166 205.022 888.79 196.203C883.408 187.383 880.707 177.294 880.707 165.969C880.707 154.644 883.408 144.555 888.79 135.736C894.166 126.917 901.35 119.934 910.338 114.823C919.325 109.712 929.312 107.173 940.369 107.173C951.427 107.173 961.65 109.745 970.599 114.823C979.586 119.934 986.739 126.883 992.051 135.636C997.363 144.389 1000.03 154.511 1000.03 165.969C1000.03 177.427 997.325 187.383 991.949 196.203C986.573 205.055 979.389 212.004 970.401 217.115C961.414 222.226 951.427 224.765 940.369 224.765ZM940.369 199.91C946.58 199.91 951.994 198.474 956.637 195.568C961.28 192.661 964.924 188.619 967.631 183.441C970.331 178.263 971.669 172.417 971.669 165.936C971.669 159.455 970.331 153.642 967.631 148.531C964.924 143.42 961.28 139.411 956.637 136.505C951.994 133.598 946.58 132.161 940.369 132.161C934.153 132.161 928.911 133.598 924.197 136.505C919.49 139.411 915.815 143.42 913.108 148.531C910.401 153.642 909.064 159.455 909.064 165.936C909.064 172.417 910.401 178.263 913.108 183.441C915.815 188.619 919.49 192.661 924.197 195.568C928.911 198.474 934.287 199.91 940.369 199.91Z" fill="#1EA373"/>
</svg>
